<?xml version="1.0" standalone="no"?>
<!DOCTYPE svg PUBLIC "-//W3C//DTD SVG 20010904//EN"
 "http://www.w3.org/TR/2001/REC-SVG-20010904/DTD/svg10.dtd">
<svg version="1.0" xmlns="http://www.w3.org/2000/svg"
 width="512.000000pt" height="512.000000pt" viewBox="0 0 512.000000 512.000000"
 preserveAspectRatio="xMidYMid meet">

<g transform="translate(0.000000,512.000000) scale(0.100000,-0.100000)"
fill="#000000" stroke="none">
<path d="M2425 4663 c-409 -27 -823 -185 -1160 -442 -89 -68 -278 -254 -355
-351 -79 -99 -165 -230 -208 -316 -30 -60 -32 -61 -81 -68 -27 -4 -86 -24
-129 -46 -142 -71 -249 -213 -275 -364 -13 -75 -7 -93 36 -114 22 -11 32 -11
54 0 23 11 31 26 48 95 34 133 101 214 223 271 l57 27 1894 3 c2065 3 1958 5
2056 -52 59 -35 122 -103 153 -166 l27 -55 0 -525 0 -525 -27 -56 c-53 -107
-157 -187 -273 -209 -44 -8 -569 -10 -1945 -8 l-1885 3 -57 27 c-122 57 -195
146 -223 273 -15 65 -21 78 -46 90 -35 19 -74 6 -91 -30 -16 -36 3 -133 44
-215 64 -132 227 -257 358 -275 50 -7 50 -7 87 -78 127 -240 347 -497 577
-672 637 -485 1480 -567 2201 -215 227 110 397 233 577 416 147 150 255 294
346 463 l40 74 72 18 c99 25 164 63 241 139 69 68 118 154 138 240 7 28 11
237 11 540 0 414 -3 506 -15 555 -47 178 -206 329 -388 367 l-57 12 -47 86
c-80 148 -168 269 -302 415 -146 160 -200 191 -249 145 -42 -39 -30 -66 74
-171 l97 -97 -40 -25 c-107 -68 -350 -174 -364 -160 -4 4 -21 43 -38 85 -84
212 -219 432 -353 573 -44 47 -77 85 -73 85 24 0 181 -64 296 -122 139 -69
171 -78 203 -55 22 16 26 78 7 101 -25 30 -307 163 -435 204 -263 87 -539 122
-801 105z m65 -654 l0 -512 -117 7 c-137 8 -315 29 -434 52 -102 18 -281 64
-292 73 -8 8 31 108 94 237 98 201 270 417 415 520 95 68 241 130 312 133 l22
1 0 -511z m246 490 c282 -85 542 -373 710 -784 18 -44 29 -83 26 -86 -12 -11
-263 -68 -392 -89 -117 -18 -341 -40 -416 -40 l-34 0 0 510 c0 585 -13 525
106 489z m-828 -140 c-142 -150 -281 -375 -368 -594 -17 -44 -35 -83 -38 -86
-17 -16 -391 162 -400 191 -6 18 148 164 268 254 167 126 347 223 537 291 37
13 70 24 73 25 3 0 -29 -36 -72 -81z m2322 -759 l59 -95 -306 -3 c-302 -2
-322 -1 -323 29 0 3 37 20 83 39 92 37 272 126 332 164 l40 26 28 -33 c16 -17
55 -75 87 -127z m-3161 116 c76 -46 199 -106 299 -147 60 -24 82 -38 82 -51 0
-17 -18 -18 -306 -18 -287 0 -306 1 -299 17 12 32 149 233 158 233 5 0 35 -15
66 -34z m385 -2112 c4 -9 5 -18 4 -20 -2 -1 -38 -16 -80 -33 -83 -33 -266
-123 -335 -166 l-41 -25 -30 37 c-27 35 -66 95 -121 186 l-23 37 310 0 c278 0
311 -2 316 -16z m1036 -495 l0 -511 -42 7 c-267 45 -538 301 -716 675 -81 169
-95 209 -80 215 7 3 68 18 135 34 198 48 467 85 646 90 l57 1 0 -511z m355
501 c212 -19 614 -95 630 -120 13 -21 -128 -311 -216 -442 -73 -108 -208 -252
-295 -314 -72 -51 -172 -100 -246 -120 -98 -26 -88 -82 -88 496 l0 510 48 0
c26 0 101 -5 167 -10z m1430 -7 c-12 -32 -149 -233 -158 -233 -5 0 -35 15 -66
34 -76 46 -199 106 -298 147 -61 24 -83 38 -83 51 0 17 18 18 306 18 287 0
306 -1 299 -17z m-411 -263 c83 -41 152 -80 154 -87 5 -17 -68 -93 -177 -185
-185 -154 -360 -259 -573 -342 -65 -25 -121 -46 -126 -46 -5 0 20 30 57 68
150 152 288 373 382 609 17 43 33 81 35 85 7 11 88 -22 248 -102z m-2319 -6
c95 -228 213 -417 348 -560 92 -98 94 -97 -76 -29 -222 89 -444 234 -623 407
-67 65 -91 94 -84 103 25 30 360 188 384 181 5 -1 28 -47 51 -102z"/>
<path d="M1116 3059 c-15 -12 -26 -30 -26 -44 0 -38 389 -927 417 -952 29 -28
54 -29 82 -5 20 17 406 890 418 944 4 20 -1 33 -20 52 -32 32 -61 33 -90 4
-12 -13 -85 -167 -161 -343 -77 -176 -150 -344 -163 -374 l-24 -55 -165 380
c-92 212 -174 387 -185 397 -28 22 -50 22 -83 -4z"/>
<path d="M2247 3060 l-27 -21 0 -479 0 -479 26 -20 c33 -26 55 -26 85 -2 24
19 24 23 27 225 l3 206 167 0 c92 0 183 5 203 10 52 15 99 49 134 98 29 42 30
49 33 160 5 171 -19 233 -116 289 l-47 28 -230 3 c-223 3 -231 3 -258 -18z
m484 -149 c28 -29 29 -32 29 -129 0 -100 0 -100 -31 -126 -30 -26 -32 -26
-200 -26 l-169 0 0 155 0 155 171 0 171 0 29 -29z"/>
<path d="M3119 3061 l-24 -19 -3 -454 c-2 -312 0 -465 8 -491 16 -55 64 -68
122 -33 1 0 5 152 8 336 l5 335 183 -330 c101 -181 192 -338 204 -347 27 -23
49 -23 82 3 l26 20 0 479 0 479 -26 20 c-33 26 -55 26 -85 2 l-24 -19 -5 -325
-5 -325 -184 333 c-181 327 -200 355 -245 355 -8 0 -24 -9 -37 -19z"/>
<path d="M250 2723 c-34 -12 -40 -36 -40 -165 0 -115 2 -130 20 -148 25 -25
61 -26 91 -1 20 16 23 29 27 114 2 53 1 112 -2 132 -11 59 -49 85 -96 68z"/>
</g>
</svg>
